<mxfile host="app.diagrams.net" modified="2022-12-08T21:42:39.397Z" agent="5.0 (Macintosh; Intel Mac OS X 10_15_7) AppleWebKit/537.36 (KHTML, like Gecko) Chrome/108.0.0.0 Safari/537.36" etag="6AZ0cpNmwkNmOgGpklGI" version="20.6.1" type="github">
  <diagram name="Page-1" id="5d7acffa-a066-3a61-03fe-96351882024d">
    <mxGraphModel dx="1113" dy="721" grid="0" gridSize="10" guides="1" tooltips="1" connect="1" arrows="1" fold="1" page="1" pageScale="1" pageWidth="1100" pageHeight="850" math="0" shadow="0">
      <root>
        <mxCell id="0" />
        <mxCell id="1" parent="0" />
        <mxCell id="2debaab0fafb2da2-10" value="Database" style="html=1;rounded=0;shadow=0;comic=0;labelBackgroundColor=none;strokeWidth=2;fontFamily=Verdana;fontSize=12;align=center;shape=mxgraph.ios7ui.horLines;fillColor=#A8DADC;strokeColor=#457B9D;fontColor=#1D3557;" parent="1" vertex="1">
          <mxGeometry x="234" y="478" width="640" height="45" as="geometry" />
        </mxCell>
        <mxCell id="21ea969265ad0168-18" value="Eviroment" style="swimlane;html=1;fontStyle=0;childLayout=stackLayout;horizontal=1;startSize=26;fillColor=#A8DADC;horizontalStack=0;resizeParent=1;resizeLast=0;collapsible=1;marginBottom=0;swimlaneFillColor=#ffffff;align=center;rounded=1;shadow=0;comic=0;labelBackgroundColor=none;strokeWidth=1;fontFamily=Verdana;fontSize=12;strokeColor=#457B9D;fontColor=#1D3557;" parent="1" vertex="1">
          <mxGeometry x="234" y="568" width="640" height="100" as="geometry" />
        </mxCell>
        <mxCell id="bVFSjJAmiTZMtzbv4Y0n-6" value="" style="edgeStyle=orthogonalEdgeStyle;rounded=0;orthogonalLoop=1;jettySize=auto;html=1;labelBackgroundColor=#F1FAEE;strokeColor=#457B9D;fontColor=#1D3557;" edge="1" parent="1" source="bVFSjJAmiTZMtzbv4Y0n-3" target="bVFSjJAmiTZMtzbv4Y0n-5">
          <mxGeometry relative="1" as="geometry" />
        </mxCell>
        <mxCell id="bVFSjJAmiTZMtzbv4Y0n-8" value="" style="edgeStyle=orthogonalEdgeStyle;rounded=0;orthogonalLoop=1;jettySize=auto;html=1;labelBackgroundColor=#F1FAEE;strokeColor=#457B9D;fontColor=#1D3557;" edge="1" parent="1" source="bVFSjJAmiTZMtzbv4Y0n-3" target="bVFSjJAmiTZMtzbv4Y0n-7">
          <mxGeometry relative="1" as="geometry" />
        </mxCell>
        <mxCell id="bVFSjJAmiTZMtzbv4Y0n-10" value="" style="edgeStyle=orthogonalEdgeStyle;rounded=0;orthogonalLoop=1;jettySize=auto;html=1;labelBackgroundColor=#F1FAEE;strokeColor=#457B9D;fontColor=#1D3557;" edge="1" parent="1" source="bVFSjJAmiTZMtzbv4Y0n-3" target="bVFSjJAmiTZMtzbv4Y0n-9">
          <mxGeometry relative="1" as="geometry" />
        </mxCell>
        <mxCell id="bVFSjJAmiTZMtzbv4Y0n-14" value="" style="edgeStyle=orthogonalEdgeStyle;rounded=0;orthogonalLoop=1;jettySize=auto;html=1;labelBackgroundColor=#F1FAEE;strokeColor=#457B9D;fontColor=#1D3557;" edge="1" parent="1" source="bVFSjJAmiTZMtzbv4Y0n-3" target="bVFSjJAmiTZMtzbv4Y0n-13">
          <mxGeometry relative="1" as="geometry" />
        </mxCell>
        <mxCell id="bVFSjJAmiTZMtzbv4Y0n-16" value="" style="edgeStyle=orthogonalEdgeStyle;rounded=0;orthogonalLoop=1;jettySize=auto;html=1;labelBackgroundColor=#F1FAEE;strokeColor=#457B9D;fontColor=#1D3557;" edge="1" parent="1" source="bVFSjJAmiTZMtzbv4Y0n-3" target="bVFSjJAmiTZMtzbv4Y0n-15">
          <mxGeometry relative="1" as="geometry" />
        </mxCell>
        <mxCell id="bVFSjJAmiTZMtzbv4Y0n-19" value="" style="edgeStyle=orthogonalEdgeStyle;rounded=0;orthogonalLoop=1;jettySize=auto;html=1;labelBackgroundColor=#F1FAEE;strokeColor=#457B9D;fontColor=#1D3557;" edge="1" parent="1" source="bVFSjJAmiTZMtzbv4Y0n-3" target="bVFSjJAmiTZMtzbv4Y0n-15">
          <mxGeometry relative="1" as="geometry" />
        </mxCell>
        <mxCell id="bVFSjJAmiTZMtzbv4Y0n-20" value="" style="edgeStyle=orthogonalEdgeStyle;rounded=0;orthogonalLoop=1;jettySize=auto;html=1;labelBackgroundColor=#F1FAEE;strokeColor=#457B9D;fontColor=#1D3557;" edge="1" parent="1" source="bVFSjJAmiTZMtzbv4Y0n-3" target="bVFSjJAmiTZMtzbv4Y0n-15">
          <mxGeometry relative="1" as="geometry" />
        </mxCell>
        <mxCell id="bVFSjJAmiTZMtzbv4Y0n-21" value="" style="edgeStyle=orthogonalEdgeStyle;rounded=0;orthogonalLoop=1;jettySize=auto;html=1;labelBackgroundColor=#F1FAEE;strokeColor=#457B9D;fontColor=#1D3557;" edge="1" parent="1" source="bVFSjJAmiTZMtzbv4Y0n-3" target="bVFSjJAmiTZMtzbv4Y0n-15">
          <mxGeometry relative="1" as="geometry" />
        </mxCell>
        <mxCell id="bVFSjJAmiTZMtzbv4Y0n-22" value="" style="edgeStyle=orthogonalEdgeStyle;rounded=0;orthogonalLoop=1;jettySize=auto;html=1;labelBackgroundColor=#F1FAEE;strokeColor=#457B9D;fontColor=#1D3557;" edge="1" parent="1" source="bVFSjJAmiTZMtzbv4Y0n-3" target="bVFSjJAmiTZMtzbv4Y0n-15">
          <mxGeometry relative="1" as="geometry" />
        </mxCell>
        <mxCell id="bVFSjJAmiTZMtzbv4Y0n-23" value="" style="edgeStyle=orthogonalEdgeStyle;rounded=0;orthogonalLoop=1;jettySize=auto;html=1;labelBackgroundColor=#F1FAEE;strokeColor=#457B9D;fontColor=#1D3557;" edge="1" parent="1" source="bVFSjJAmiTZMtzbv4Y0n-3" target="bVFSjJAmiTZMtzbv4Y0n-13">
          <mxGeometry relative="1" as="geometry" />
        </mxCell>
        <mxCell id="bVFSjJAmiTZMtzbv4Y0n-25" value="" style="edgeStyle=orthogonalEdgeStyle;rounded=0;orthogonalLoop=1;jettySize=auto;html=1;labelBackgroundColor=#F1FAEE;strokeColor=#457B9D;fontColor=#1D3557;" edge="1" parent="1" source="bVFSjJAmiTZMtzbv4Y0n-3" target="bVFSjJAmiTZMtzbv4Y0n-24">
          <mxGeometry relative="1" as="geometry" />
        </mxCell>
        <mxCell id="bVFSjJAmiTZMtzbv4Y0n-3" value="Data Processor" style="html=1;rounded=0;shadow=0;comic=0;labelBackgroundColor=none;strokeWidth=2;fontFamily=Verdana;fontSize=12;align=center;shape=mxgraph.ios7ui.horLines;fillColor=#A8DADC;strokeColor=#457B9D;fontColor=#1D3557;" vertex="1" parent="1">
          <mxGeometry x="234" y="388" width="640" height="50" as="geometry" />
        </mxCell>
        <mxCell id="bVFSjJAmiTZMtzbv4Y0n-27" style="edgeStyle=orthogonalEdgeStyle;rounded=0;orthogonalLoop=1;jettySize=auto;html=1;exitX=0.5;exitY=0;exitDx=0;exitDy=0;entryX=0.5;entryY=1;entryDx=0;entryDy=0;labelBackgroundColor=#F1FAEE;strokeColor=#457B9D;fontColor=#1D3557;" edge="1" parent="1" source="bVFSjJAmiTZMtzbv4Y0n-5" target="bVFSjJAmiTZMtzbv4Y0n-26">
          <mxGeometry relative="1" as="geometry" />
        </mxCell>
        <mxCell id="bVFSjJAmiTZMtzbv4Y0n-5" value="Employee&lt;br&gt;management" style="whiteSpace=wrap;html=1;fontFamily=Verdana;rounded=1;shadow=0;comic=0;labelBackgroundColor=none;strokeWidth=2;fillColor=#A8DADC;strokeColor=#457B9D;fontColor=#1D3557;" vertex="1" parent="1">
          <mxGeometry x="234" y="268" width="90" height="80" as="geometry" />
        </mxCell>
        <mxCell id="bVFSjJAmiTZMtzbv4Y0n-30" style="edgeStyle=orthogonalEdgeStyle;rounded=0;orthogonalLoop=1;jettySize=auto;html=1;exitX=0.5;exitY=0;exitDx=0;exitDy=0;entryX=0.5;entryY=1;entryDx=0;entryDy=0;labelBackgroundColor=#F1FAEE;strokeColor=#457B9D;fontColor=#1D3557;" edge="1" parent="1" source="bVFSjJAmiTZMtzbv4Y0n-7" target="bVFSjJAmiTZMtzbv4Y0n-26">
          <mxGeometry relative="1" as="geometry" />
        </mxCell>
        <mxCell id="bVFSjJAmiTZMtzbv4Y0n-7" value="Reporting" style="whiteSpace=wrap;html=1;fontFamily=Verdana;rounded=1;shadow=0;comic=0;labelBackgroundColor=none;strokeWidth=2;fillColor=#A8DADC;strokeColor=#457B9D;fontColor=#1D3557;" vertex="1" parent="1">
          <mxGeometry x="334" y="268" width="70" height="80" as="geometry" />
        </mxCell>
        <mxCell id="bVFSjJAmiTZMtzbv4Y0n-35" style="edgeStyle=orthogonalEdgeStyle;rounded=0;orthogonalLoop=1;jettySize=auto;html=1;exitX=0.5;exitY=0;exitDx=0;exitDy=0;entryX=0.5;entryY=1;entryDx=0;entryDy=0;labelBackgroundColor=#F1FAEE;strokeColor=#457B9D;fontColor=#1D3557;" edge="1" parent="1" source="bVFSjJAmiTZMtzbv4Y0n-9" target="bVFSjJAmiTZMtzbv4Y0n-26">
          <mxGeometry relative="1" as="geometry" />
        </mxCell>
        <mxCell id="bVFSjJAmiTZMtzbv4Y0n-9" value="SFTP&amp;nbsp;&lt;br&gt;Management" style="whiteSpace=wrap;html=1;fontFamily=Verdana;rounded=1;shadow=0;comic=0;labelBackgroundColor=none;strokeWidth=2;fillColor=#A8DADC;strokeColor=#457B9D;fontColor=#1D3557;" vertex="1" parent="1">
          <mxGeometry x="664" y="268" width="90" height="80" as="geometry" />
        </mxCell>
        <mxCell id="bVFSjJAmiTZMtzbv4Y0n-11" style="edgeStyle=orthogonalEdgeStyle;rounded=0;orthogonalLoop=1;jettySize=auto;html=1;exitX=0.5;exitY=1;exitDx=0;exitDy=0;labelBackgroundColor=#F1FAEE;strokeColor=#457B9D;fontColor=#1D3557;" edge="1" parent="1" source="bVFSjJAmiTZMtzbv4Y0n-7" target="bVFSjJAmiTZMtzbv4Y0n-7">
          <mxGeometry relative="1" as="geometry" />
        </mxCell>
        <mxCell id="bVFSjJAmiTZMtzbv4Y0n-31" style="edgeStyle=orthogonalEdgeStyle;rounded=0;orthogonalLoop=1;jettySize=auto;html=1;exitX=0.5;exitY=0;exitDx=0;exitDy=0;entryX=0.5;entryY=1;entryDx=0;entryDy=0;labelBackgroundColor=#F1FAEE;strokeColor=#457B9D;fontColor=#1D3557;" edge="1" parent="1" source="bVFSjJAmiTZMtzbv4Y0n-13" target="bVFSjJAmiTZMtzbv4Y0n-26">
          <mxGeometry relative="1" as="geometry" />
        </mxCell>
        <mxCell id="bVFSjJAmiTZMtzbv4Y0n-13" value="API management" style="whiteSpace=wrap;html=1;fontFamily=Verdana;rounded=1;shadow=0;comic=0;labelBackgroundColor=none;strokeWidth=2;fillColor=#A8DADC;strokeColor=#457B9D;fontColor=#1D3557;" vertex="1" parent="1">
          <mxGeometry x="424" y="268" width="90" height="80" as="geometry" />
        </mxCell>
        <mxCell id="bVFSjJAmiTZMtzbv4Y0n-36" style="edgeStyle=orthogonalEdgeStyle;rounded=0;orthogonalLoop=1;jettySize=auto;html=1;exitX=0.5;exitY=0;exitDx=0;exitDy=0;entryX=0.5;entryY=1;entryDx=0;entryDy=0;labelBackgroundColor=#F1FAEE;strokeColor=#457B9D;fontColor=#1D3557;" edge="1" parent="1" source="bVFSjJAmiTZMtzbv4Y0n-15" target="bVFSjJAmiTZMtzbv4Y0n-26">
          <mxGeometry relative="1" as="geometry" />
        </mxCell>
        <mxCell id="bVFSjJAmiTZMtzbv4Y0n-15" value="Data Export" style="whiteSpace=wrap;html=1;fontFamily=Verdana;rounded=1;shadow=0;comic=0;labelBackgroundColor=none;strokeWidth=2;fillColor=#A8DADC;strokeColor=#457B9D;fontColor=#1D3557;" vertex="1" parent="1">
          <mxGeometry x="774" y="268" width="90" height="80" as="geometry" />
        </mxCell>
        <mxCell id="bVFSjJAmiTZMtzbv4Y0n-32" style="edgeStyle=orthogonalEdgeStyle;rounded=0;orthogonalLoop=1;jettySize=auto;html=1;exitX=0.5;exitY=0;exitDx=0;exitDy=0;entryX=0.5;entryY=1;entryDx=0;entryDy=0;labelBackgroundColor=#F1FAEE;strokeColor=#457B9D;fontColor=#1D3557;" edge="1" parent="1" source="bVFSjJAmiTZMtzbv4Y0n-24" target="bVFSjJAmiTZMtzbv4Y0n-26">
          <mxGeometry relative="1" as="geometry" />
        </mxCell>
        <mxCell id="bVFSjJAmiTZMtzbv4Y0n-24" value="SAGE Management" style="whiteSpace=wrap;html=1;fontFamily=Verdana;rounded=1;shadow=0;comic=0;labelBackgroundColor=none;strokeWidth=2;fillColor=#A8DADC;strokeColor=#457B9D;fontColor=#1D3557;" vertex="1" parent="1">
          <mxGeometry x="534" y="268" width="100" height="80" as="geometry" />
        </mxCell>
        <mxCell id="bVFSjJAmiTZMtzbv4Y0n-26" value="User Interface" style="shape=process;whiteSpace=wrap;html=1;backgroundOutline=1;fillColor=#A8DADC;strokeColor=#457B9D;fontColor=#1D3557;rounded=1;" vertex="1" parent="1">
          <mxGeometry x="230" y="156" width="660" height="60" as="geometry" />
        </mxCell>
        <mxCell id="bVFSjJAmiTZMtzbv4Y0n-40" value="" style="endArrow=classic;startArrow=classic;html=1;strokeColor=#457B9D;fontColor=#1D3557;fillColor=#A8DADC;exitX=0.5;exitY=0;exitDx=0;exitDy=0;" edge="1" parent="1" source="21ea969265ad0168-18" target="2debaab0fafb2da2-10">
          <mxGeometry width="50" height="50" relative="1" as="geometry">
            <mxPoint x="526" y="570" as="sourcePoint" />
            <mxPoint x="550" y="531" as="targetPoint" />
          </mxGeometry>
        </mxCell>
        <mxCell id="bVFSjJAmiTZMtzbv4Y0n-41" value="" style="endArrow=classic;startArrow=classic;html=1;strokeColor=#457B9D;fontColor=#1D3557;fillColor=#A8DADC;exitX=0.5;exitY=-0.044;exitDx=0;exitDy=0;exitPerimeter=0;" edge="1" parent="1" source="2debaab0fafb2da2-10">
          <mxGeometry width="50" height="50" relative="1" as="geometry">
            <mxPoint x="554" y="470" as="sourcePoint" />
            <mxPoint x="553.5" y="438" as="targetPoint" />
          </mxGeometry>
        </mxCell>
      </root>
    </mxGraphModel>
  </diagram>
</mxfile>
